{"title":"Country.Justice.HDTV.XviD-AFG","uid":11896270,"size":453607890,"categoryP":"other","categoryS":"other","magnet":"?xt=urn:btih:0c679a345f543d953afb780037257387a6ba0462&amp;dn=Country.Justice.HDTV.XviD-AFG&amp;tr=udp%3A%2F%2Ftracker.openbittorrent.com%3A80&amp;tr=udp%3A%2F%2Fopen.demonii.com%3A1337&amp;tr=udp%3A%2F%2Ftracker.coppersurfer.tk%3A6969&amp;tr=udp%3A%2F%2Fexodus.desync.com%3A6969","seeders":0,"leechers":1,"uploader":"toots2boots","files":2,"time":1431160742,"description":"Country Justice Pilot Episode\nThe Fayette County Sheriff's K-9 unit will be featured in a new pilot called &quot;Country Justice&quot; set to air at 10 p.m. Tuesday on Animal Planet. A production team followed the deputies and their canine partners around for two weeks over the summer.\nThe film crew sent their footage to Animal Planet for a pilot. If the pilot does well Tuesday, the film crew will return to Fayetteville to film another 30 weeks for a full season.\n\n\nGeneral\nComplete name                            : G:Torrent uploadCountry JusticeCountry.Justice.HDTV.XviD-AFGCountry.Justice.HDTV.XviD-AFG.avi\nFormat                                   : AVI\nFormat/Info                              : Audio Video Interleave\nFile size                                : 433 MiB\nDuration                                 : 43mn 8s\nOverall bit rate mode                    : Variable\nOverall bit rate                         : 1 402 Kbps\n\nVideo\nID                                       : 0\nFormat                                   : MPEG-4 Visual\nFormat profile                           : Advanced Simple@L5\nFormat settings, BVOP                    : 2\nFormat settings, QPel                    : No\nFormat settings, GMC                     : No warppoints\nFormat settings, Matrix                  : Default (H.263)\nCodec ID                                 : XVID\nCodec ID/Hint                            : XviD\nDuration                                 : 43mn 8s\nBit rate                                 : 1 260 Kbps\nWidth                                    : 640 pixels\nHeight                                   : 360 pixels\nDisplay aspect ratio                     : 16:9\nFrame rate                               : 29.970 fps\nColor space                              : YUV\nChroma subsampling                       : 4:2:0\nBit depth                                : 8 bits\nScan type                                : Progressive\nCompression mode                         : Lossy\nBits/(Pixel*Frame)                       : 0.182\nStream size                              : 389 MiB (90%)\nWriting library                          : XviD 64\n\nAudio\nID                                       : 1\nFormat                                   : MPEG Audio\nFormat version                           : Version 1\nFormat profile                           : Layer 3\nMode                                     : Joint stereo\nMode extension                           : MS Stereo\nCodec ID                                 : 55\nCodec ID/Hint                            : MP3\nDuration                                 : 43mn 8s\nBit rate mode                            : Variable\nBit rate                                 : 128 Kbps\nChannel(s)                               : 2 channels\nSampling rate                            : 48.0 KHz\nCompression mode                         : Lossy\nStream size                              : 39.5 MiB (9%)\nAlignment                                : Aligned on interleaves\nInterleave, duration                     : 24 ms (0.72 video frame)\nInterleave, preload duration             : 178 ms\nTitle                                    : Country.Justice.HDTV.XviD-AFG_360p.audio","torrent":{"xt":"urn:btih:0c679a345f543d953afb780037257387a6ba0462","amp;dn":"Country.Justice.HDTV.XviD-AFG","amp;tr":["udp%3A%2F%2Ftracker.openbittorrent.com%3A80","udp%3A%2F%2Fopen.demonii.com%3A1337","udp%3A%2F%2Ftracker.coppersurfer.tk%3A6969","udp%3A%2F%2Fexodus.desync.com%3A6969"],"infoHash":"0c679a345f543d953afb780037257387a6ba0462","infoHashBuffer":{"type":"Buffer","data":[12,103,154,52,95,84,61,149,58,251,120,0,55,37,115,135,166,186,4,98]},"announce":[],"urlList":[]}}